<?xml version="1.0" encoding="UTF-8"?>
<!DOCTYPE svg PUBLIC "-//W3C//DTD SVG 1.1//EN" "http://www.w3.org/Graphics/SVG/1.1/DTD/svg11.dtd">
<svg xmlns="http://www.w3.org/2000/svg" version="1.1" width="1024px" height="650px" style="shape-rendering:geometricPrecision; text-rendering:geometricPrecision; image-rendering:optimizeQuality; fill-rule:evenodd; clip-rule:evenodd" xmlns:xlink="http://www.w3.org/1999/xlink">
<g><path style="opacity:0.98" fill="#000000" d="M 436.5,-0.5 C 488.833,-0.5 541.167,-0.5 593.5,-0.5C 646.072,1.12919 698.738,3.96253 751.5,8C 785.198,34.6938 814.365,65.5271 839,100.5C 851.338,120.506 863.172,140.839 874.5,161.5C 876.868,160.631 878.368,158.965 879,156.5C 879.261,148.13 879.928,139.797 881,131.5C 882.419,130.54 883.919,129.707 885.5,129C 901.631,126.56 917.631,127.227 933.5,131C 951.845,135.853 958.012,147.353 952,165.5C 947.637,173.109 941.137,177.942 932.5,180C 924.236,182.316 915.903,182.816 907.5,181.5C 905.978,178.447 903.978,175.78 901.5,173.5C 901.167,173.667 900.833,173.833 900.5,174C 902.848,176.354 903.514,179.021 902.5,182C 897.5,182.333 892.5,182.667 887.5,183C 885.616,183.216 883.949,183.883 882.5,185C 892.597,196.039 902.097,207.539 911,219.5C 907.513,211.634 902.68,204.467 896.5,198C 897,197.833 897.5,197.667 898,197.5C 919.169,209.331 938.669,223.497 956.5,240C 973.333,257.5 990.167,275 1007,292.5C 1015.02,317.426 1020.52,342.759 1023.5,368.5C 1023.5,377.5 1023.5,386.5 1023.5,395.5C 1018.21,400.616 1012.21,404.782 1005.5,408C 1012.28,407.447 1018.28,404.947 1023.5,400.5C 1023.5,406.833 1023.5,413.167 1023.5,419.5C 1021.27,457.69 1018.94,496.023 1016.5,534.5C 1008.34,536.38 1001.01,539.88 994.5,545C 1001.45,541.708 1008.78,539.208 1016.5,537.5C 1019.11,565.457 1017.27,593.124 1011,620.5C 1005.45,633.217 996.613,642.884 984.5,649.5C 959.833,649.5 935.167,649.5 910.5,649.5C 888.313,648.883 865.98,648.049 843.5,647C 842.069,646.535 840.903,645.701 840,644.5C 838.763,640.94 838.263,637.273 838.5,633.5C 850.007,633.978 861.341,632.811 872.5,630C 820.842,630.579 769.176,630.579 717.5,630C 711.5,629.667 705.5,629.333 699.5,629C 682.924,626.015 666.257,623.682 649.5,622C 603.497,621.714 557.497,621.214 511.5,620.5C 465.836,621.213 420.17,621.713 374.5,622C 357.399,623.586 340.399,625.919 323.5,629C 268.84,630.789 214.174,630.956 159.5,629.5C 147.634,629.376 147.634,630.21 159.5,632C 167.797,633.123 176.13,633.623 184.5,633.5C 184.737,637.273 184.237,640.94 183,644.5C 182.097,645.701 180.931,646.535 179.5,647C 157.02,648.049 134.687,648.883 112.5,649.5C 87.8333,649.5 63.1667,649.5 38.5,649.5C 26.3865,642.884 17.5532,633.217 12,620.5C 5.72675,593.124 3.89342,565.457 6.5,537.5C 14.2172,539.208 21.5506,541.708 28.5,545C 21.9903,539.88 14.6569,536.38 6.5,534.5C 4.0611,496.023 1.72777,457.69 -0.5,419.5C -0.5,413.167 -0.5,406.833 -0.5,400.5C 4.72286,404.947 10.7229,407.447 17.5,408C 10.7923,404.782 4.79229,400.616 -0.5,395.5C -0.5,386.5 -0.5,377.5 -0.5,368.5C 2.48286,342.764 7.98286,317.431 16,292.5C 38.1995,267.3 62.0328,243.8 87.5,222C 99.2479,212.708 111.748,204.541 125,197.5C 125.5,197.667 126,197.833 126.5,198C 120.32,204.467 115.487,211.634 112,219.5C 120.903,207.539 130.403,196.039 140.5,185C 139.051,183.883 137.384,183.216 135.5,183C 130.5,182.667 125.5,182.333 120.5,182C 119.486,179.021 120.152,176.354 122.5,174C 122.167,173.833 121.833,173.667 121.5,173.5C 119.022,175.78 117.022,178.447 115.5,181.5C 101.907,183.583 89.2405,181.083 77.5,174C 71.3792,168.776 68.7126,162.109 69.5,154C 68.818,147.032 71.1514,141.365 76.5,137C 94.1193,127.937 112.786,124.937 132.5,128C 139.492,127.421 142.992,130.588 143,137.5C 143.108,144.911 143.775,152.245 145,159.5C 146.085,160.293 147.252,160.96 148.5,161.5C 158.667,143.833 168.833,126.167 179,108.5C 204.168,69.9901 235.001,36.4901 271.5,8C 326.613,4.25716 381.613,1.42382 436.5,-0.5 Z M 751.5,17.5 C 759.411,23.9061 766.911,30.9061 774,38.5C 804.367,76.5572 831.2,117.057 854.5,160C 625.832,146.07 397.165,146.07 168.5,160C 193.67,113.472 223.17,69.9718 257,29.5C 261.726,25.2651 266.559,21.2651 271.5,17.5C 269.688,19.4605 268.688,21.7939 268.5,24.5C 392.941,12.2855 517.608,9.11883 642.5,15C 679.925,17.1743 717.259,20.341 754.5,24.5C 754.312,21.7939 753.312,19.4605 751.5,17.5 Z M 928.5,275.5 C 949.814,277.103 970.314,282.103 990,290.5C 993.245,307.702 994.579,325.035 994,342.5C 990.274,355.217 981.774,362.717 968.5,365C 934.599,372.863 900.266,377.863 865.5,380C 836.189,382.051 806.856,383.718 777.5,385C 775.423,385.192 773.423,385.692 771.5,386.5C 766.726,396.382 762.226,406.382 758,416.5C 749.945,438.943 741.611,461.276 733,483.5C 719.32,516.144 700.486,545.31 676.5,571C 672.928,573.637 668.928,575.303 664.5,576C 654.549,577.707 644.549,579.041 634.5,580C 608.516,581.481 582.516,581.814 556.5,581C 588.346,580.973 620.013,578.64 651.5,574C 657.276,573.045 662.943,571.712 668.5,570C 697.78,543.3 718.947,511.133 732,473.5C 740.274,450.677 748.941,428.01 758,405.5C 775.473,369.221 793.473,333.221 812,297.5C 847.176,296.532 881.342,290.032 914.5,278C 919.294,277.098 923.961,276.265 928.5,275.5 Z M 77.5,276.5 C 87.1724,276.334 96.8391,276.5 106.5,277C 139.973,289.828 174.64,296.495 210.5,297C 228.988,332.143 246.822,367.643 264,403.5C 275.667,433.167 287.333,462.833 299,492.5C 311.716,523.448 330.882,549.615 356.5,571C 392.817,577.999 429.483,581.332 466.5,581C 440.15,581.817 413.817,581.484 387.5,580C 374.509,579.169 361.842,576.836 349.5,573C 324.089,547.897 304.589,518.73 291,485.5C 282.055,462.61 273.389,439.61 265,416.5C 260.774,406.382 256.274,396.382 251.5,386.5C 249.577,385.692 247.577,385.192 245.5,385C 199.369,383.436 153.369,380.102 107.5,375C 87.4485,372.825 67.7818,368.825 48.5,363C 38.2264,359.727 31.7264,352.894 29,342.5C 28.4215,325.035 29.7548,307.702 33,290.5C 47.7712,285.297 62.6045,280.63 77.5,276.5 Z M 212.5,276.5 C 213.931,277.78 214.598,279.447 214.5,281.5C 213.069,280.22 212.402,278.553 212.5,276.5 Z M 344.5,279.5 C 387.638,278.884 430.638,281.051 473.5,286C 478.666,286.269 483.666,287.269 488.5,289C 490.979,293.81 494.479,297.643 499,300.5C 502.566,326.765 503.232,353.099 501,379.5C 499.92,387.407 497.253,394.741 493,401.5C 489.94,404.614 486.44,407.114 482.5,409C 445.5,409.667 408.5,409.667 371.5,409C 316.616,407.115 287.949,378.782 285.5,324C 285.949,315.724 287.116,307.557 289,299.5C 291.51,293.995 295.677,290.161 301.5,288C 315.627,283.427 329.96,280.594 344.5,279.5 Z M 625.5,279.5 C 649.557,279.001 673.557,279.834 697.5,282C 705.736,283.059 713.736,285.059 721.5,288C 728.873,290.704 733.373,295.87 735,303.5C 740.372,330.97 735.372,356.304 720,379.5C 704.885,396.807 685.718,406.307 662.5,408C 621.851,409.587 581.184,409.92 540.5,409C 533.667,406.167 528.833,401.333 526,394.5C 523.182,386.742 521.515,378.742 521,370.5C 519.915,346.74 520.915,323.073 524,299.5C 525.419,298.54 526.919,297.707 528.5,297C 530.717,293.542 533.383,290.542 536.5,288C 566.227,284.219 595.894,281.386 625.5,279.5 Z M 214.5,281.5 C 216.58,285.202 218.58,289.035 220.5,293C 237.831,294.333 255.164,295.667 272.5,297C 275.7,297.101 278.7,297.768 281.5,299C 279.03,300.114 276.364,300.614 273.5,300.5C 255.475,299.073 237.475,297.407 219.5,295.5C 217.428,290.95 215.762,286.283 214.5,281.5 Z M 808.5,281.5 C 807.593,287.07 805.26,291.904 801.5,296C 782.444,297.505 763.444,299.338 744.5,301.5C 743.354,300.855 742.354,300.022 741.5,299C 744.711,297.847 748.044,297.18 751.5,297C 768.501,295.63 785.501,294.296 802.5,293C 804.42,289.035 806.42,285.202 808.5,281.5 Z M 45.5,524.5 C 47.2629,520.901 49.9295,518.068 53.5,516C 65.6448,509.38 78.6448,505.713 92.5,505C 151.263,503.037 209.93,505.204 268.5,511.5C 265.833,511.833 263.167,512.167 260.5,512.5C 212.611,507.64 164.611,505.807 116.5,507C 106.39,507.327 96.3903,508.494 86.5,510.5C 98.657,519.122 102.157,530.455 97,544.5C 92.6052,552.105 86.1052,556.272 77.5,557C 92.0206,550.118 96.8539,538.951 92,523.5C 89.2261,517.723 84.8928,513.723 79,511.5C 66.8727,513.594 55.7061,517.927 45.5,524.5 Z M 978.5,525.5 C 968.313,518.319 956.98,513.653 944.5,511.5C 939.389,512.768 935.556,515.768 933,520.5C 925.367,536.6 929.534,548.766 945.5,557C 927.964,553.121 921.131,542.288 925,524.5C 927.571,518.766 931.404,514.099 936.5,510.5C 916.32,507.157 895.987,505.824 875.5,506.5C 837.753,506.934 800.087,508.934 762.5,512.5C 759.833,512.167 757.167,511.833 754.5,511.5C 812.691,505.323 871.024,503.157 929.5,505C 945.613,505.357 960.28,510.024 973.5,519C 975.79,520.777 977.457,522.944 978.5,525.5 Z M 333.5,516.5 C 422.661,524.364 511.994,526.53 601.5,523C 629.175,521.094 656.842,519.428 684.5,518C 679.291,527.59 673.458,536.756 667,545.5C 661.479,552.026 654.646,556.526 646.5,559C 600.923,565.84 555.09,568.34 509,566.5C 469.065,567.426 429.232,565.926 389.5,562C 374.709,562.029 362.209,556.862 352,546.5C 344.558,537.281 338.391,527.281 333.5,516.5 Z M 227.5,536.5 C 246.543,536.522 265.543,537.355 284.5,539C 285.5,540 286.5,541 287.5,542C 267.336,540.667 247.336,538.834 227.5,536.5 Z M 772.5,536.5 C 780.507,536.334 788.507,536.5 796.5,537C 776.144,538.79 755.81,540.457 735.5,542C 736.5,541 737.5,540 738.5,539C 749.972,538.006 761.306,537.173 772.5,536.5 Z M 284.5,588.5 C 286.134,587.839 287.967,587.506 290,587.5C 363.781,592.548 437.614,594.882 511.5,594.5C 585.385,594.847 659.219,592.514 733,587.5C 734.833,587.833 736.667,588.167 738.5,588.5C 698.927,591.916 659.26,594.083 619.5,595C 547.5,595.667 475.5,595.667 403.5,595C 363.702,594.06 324.035,591.894 284.5,588.5 Z M 100.5,607.5 C 101.793,606.842 103.293,606.508 105,606.5C 154.674,612.394 204.508,614.894 254.5,614C 263.607,613.364 272.607,612.364 281.5,611C 275.443,613.679 269.11,615.345 262.5,616C 234.482,617.992 206.482,617.658 178.5,615C 152.461,612.829 126.461,610.329 100.5,607.5 Z M 740.5,610.5 C 749.746,612.273 759.079,613.44 768.5,614C 786.833,614.667 805.167,614.667 823.5,614C 856.522,611.609 889.522,609.276 922.5,607C 879.175,612.727 835.675,616.227 792,617.5C 776.297,617.982 760.797,616.482 745.5,613C 743.685,612.243 742.019,611.41 740.5,610.5 Z"/></g>
<g><path style="opacity:0.883" fill="#000000" d="M 60.5,296.5 C 61.4972,296.47 62.1639,296.97 62.5,298C 57.4299,323.198 66.7632,340.531 90.5,350C 101.058,352.829 111.058,351.496 120.5,346C 123.692,343.308 127.025,340.808 130.5,338.5C 127.408,349.777 120.074,357.61 108.5,362C 83.6687,368.831 65.8354,360.664 55,337.5C 50.7496,323.005 52.5829,309.338 60.5,296.5 Z"/></g>
<g><path style="opacity:0.878" fill="#000000" d="M 960.5,298.5 C 961.793,297.355 962.959,297.689 964,299.5C 974.084,319.155 971.918,337.321 957.5,354C 941.425,366.363 924.425,367.696 906.5,358C 900.204,352.92 895.204,346.754 891.5,339.5C 891.833,339.167 892.167,338.833 892.5,338.5C 909.404,353.909 927.404,355.409 946.5,343C 960.142,330.91 964.809,316.077 960.5,298.5 Z"/></g>
<g><path style="opacity:0.9" fill="#000000" d="M 295.5,301.5 C 299.5,301.5 303.5,301.5 307.5,301.5C 308.422,318.834 309.422,336.167 310.5,353.5C 310.63,363.529 308.464,363.863 304,354.5C 297.119,337.5 294.285,319.834 295.5,301.5 Z"/></g>
<g><path style="opacity:0.901" fill="#000000" d="M 715.5,301.5 C 719.5,301.5 723.5,301.5 727.5,301.5C 728.715,319.834 725.881,337.5 719,354.5C 714.536,363.863 712.37,363.529 712.5,353.5C 713.5,336.162 714.5,318.829 715.5,301.5 Z"/></g>
<g><path style="opacity:0.903" fill="#000000" d="M 310.5,302.5 C 314.5,302.5 318.5,302.5 322.5,302.5C 323.912,325.496 325.245,348.496 326.5,371.5C 321.894,370.447 317.727,368.447 314,365.5C 312.227,344.531 311.061,323.531 310.5,302.5 Z"/></g>
<g><path style="opacity:0.901" fill="#000000" d="M 325.5,302.5 C 329.548,302.395 333.548,302.728 337.5,303.5C 339.42,328.132 340.753,352.799 341.5,377.5C 337.681,377.117 334.014,376.117 330.5,374.5C 327.684,350.587 326.017,326.587 325.5,302.5 Z"/></g>
<g><path style="opacity:0.903" fill="#000000" d="M 689.5,302.5 C 692.167,302.5 694.833,302.5 697.5,302.5C 696.97,326.586 695.303,350.586 692.5,374.5C 688.986,376.117 685.319,377.117 681.5,377.5C 682.302,353.152 683.469,328.819 685,304.5C 686.622,303.901 688.122,303.234 689.5,302.5 Z"/></g>
<g><path style="opacity:0.902" fill="#000000" d="M 700.5,302.5 C 704.5,302.5 708.5,302.5 712.5,302.5C 711.939,323.53 710.773,344.53 709,365.5C 705.273,368.447 701.106,370.447 696.5,371.5C 697.755,348.496 699.088,325.496 700.5,302.5 Z"/></g>
<g><path style="opacity:0.904" fill="#000000" d="M 341.5,303.5 C 345.24,303.241 348.906,303.574 352.5,304.5C 354.632,330.471 356.299,356.471 357.5,382.5C 353.208,381.942 349.041,380.942 345,379.5C 342.712,354.125 341.545,328.792 341.5,303.5 Z"/></g>
<g><path style="opacity:0.906" fill="#000000" d="M 671.5,303.5 C 674.85,303.335 678.183,303.502 681.5,304C 681.392,328.455 680.226,352.955 678,377.5C 677.626,378.416 677.126,379.25 676.5,380C 672.826,381.511 669.159,382.011 665.5,381.5C 666.808,359.872 667.975,338.206 669,316.5C 668.991,311.863 669.825,307.529 671.5,303.5 Z"/></g>
<g><path style="opacity:0.907" fill="#000000" d="M 355.5,304.5 C 359.767,304.203 363.934,304.536 368,305.5C 370.147,332.13 371.647,358.797 372.5,385.5C 368.186,384.725 363.853,384.059 359.5,383.5C 358.532,357.142 357.199,330.808 355.5,304.5 Z"/></g>
<g><path style="opacity:0.902" fill="#000000" d="M 484.5,304.5 C 486.857,304.337 489.19,304.503 491.5,305C 493.676,309.203 494.842,313.703 495,318.5C 495.862,334.199 495.529,349.866 494,365.5C 493.342,372.654 490.842,378.987 486.5,384.5C 485.914,384.291 485.414,383.957 485,383.5C 483.437,357.515 482.271,331.515 481.5,305.5C 482.791,305.737 483.791,305.404 484.5,304.5 Z"/></g>
<g><path style="opacity:0.899" fill="#000000" d="M 531.5,304.5 C 534.86,304.616 538.193,304.949 541.5,305.5C 540.729,331.515 539.563,357.515 538,383.5C 537.586,383.957 537.086,384.291 536.5,384.5C 534.515,382.543 533.015,380.21 532,377.5C 530.035,371.639 528.702,365.639 528,359.5C 526.908,341.75 527.575,324.084 530,306.5C 530.717,305.956 531.217,305.289 531.5,304.5 Z"/></g>
<g><path style="opacity:0.91" fill="#000000" d="M 655.5,304.5 C 659.182,304.335 662.848,304.501 666.5,305C 665.936,330.742 664.769,356.575 663,382.5C 658.997,384.085 654.83,385.085 650.5,385.5C 651.225,358.384 652.892,331.384 655.5,304.5 Z"/></g>
<g><path style="opacity:0.913" fill="#000000" d="M 371.5,305.5 C 375.833,305.5 380.167,305.5 384.5,305.5C 385.728,332.839 387.062,360.173 388.5,387.5C 384.469,386.996 380.469,386.33 376.5,385.5C 373.948,358.9 372.281,332.234 371.5,305.5 Z"/></g>
<g><path style="opacity:0.912" fill="#000000" d="M 386.5,305.5 C 390.881,305.372 395.215,305.705 399.5,306.5C 401.764,333.772 403.097,361.106 403.5,388.5C 399.466,388.495 395.466,388.162 391.5,387.5C 389.903,360.159 388.236,332.826 386.5,305.5 Z"/></g>
<g><path style="opacity:0.914" fill="#000000" d="M 468.5,305.5 C 471.833,305.5 475.167,305.5 478.5,305.5C 480.102,332.477 481.102,359.477 481.5,386.5C 477.594,387.357 473.76,387.357 470,386.5C 468.035,359.862 466.535,333.195 465.5,306.5C 466.791,306.737 467.791,306.404 468.5,305.5 Z"/></g>
<g><path style="opacity:0.909" fill="#000000" d="M 544.5,305.5 C 548.869,305.467 553.202,305.8 557.5,306.5C 556.237,333.503 554.903,360.503 553.5,387.5C 549.143,387.414 544.81,387.08 540.5,386.5C 541.734,359.495 543.067,332.495 544.5,305.5 Z"/></g>
<g><path style="opacity:0.913" fill="#000000" d="M 624.5,305.5 C 628.5,305.5 632.5,305.5 636.5,305.5C 634.694,332.822 633.027,360.155 631.5,387.5C 627.534,388.162 623.534,388.495 619.5,388.5C 619.89,361.802 621.057,335.135 623,308.5C 623.513,307.473 624.013,306.473 624.5,305.5 Z"/></g>
<g><path style="opacity:0.912" fill="#000000" d="M 638.5,305.5 C 643.179,305.334 647.845,305.501 652.5,306C 650.617,332.465 648.617,358.965 646.5,385.5C 642.531,386.33 638.531,386.996 634.5,387.5C 635.9,360.17 637.233,332.836 638.5,305.5 Z"/></g>
<g><path style="opacity:0.921" fill="#000000" d="M 403.5,306.5 C 407.5,306.5 411.5,306.5 415.5,306.5C 417.299,333.807 418.632,361.141 419.5,388.5C 415.5,388.5 411.5,388.5 407.5,388.5C 405.223,361.228 403.889,333.895 403.5,306.5 Z"/></g>
<g><path style="opacity:0.918" fill="#000000" d="M 418.5,306.5 C 422.833,306.5 427.167,306.5 431.5,306.5C 432.9,333.83 434.233,361.164 435.5,388.5C 431.167,388.5 426.833,388.5 422.5,388.5C 421.132,361.168 419.798,333.835 418.5,306.5 Z"/></g>
<g><path style="opacity:0.914" fill="#000000" d="M 434.5,306.5 C 438.5,306.5 442.5,306.5 446.5,306.5C 448.766,333.719 450.1,360.885 450.5,388C 446.514,388.499 442.514,388.666 438.5,388.5C 436.642,361.199 435.309,333.866 434.5,306.5 Z"/></g>
<g><path style="opacity:0.915" fill="#000000" d="M 450.5,306.5 C 454.5,306.5 458.5,306.5 462.5,306.5C 464.265,333.468 465.598,360.468 466.5,387.5C 462.519,388.021 458.519,388.354 454.5,388.5C 452.223,361.228 450.889,333.895 450.5,306.5 Z"/></g>
<g><path style="opacity:0.915" fill="#000000" d="M 560.5,306.5 C 564.5,306.5 568.5,306.5 572.5,306.5C 572.041,333.886 570.708,361.219 568.5,388.5C 564.083,388.393 559.749,387.726 555.5,386.5C 557.365,359.866 559.032,333.199 560.5,306.5 Z"/></g>
<g><path style="opacity:0.916" fill="#000000" d="M 576.5,306.5 C 580.5,306.5 584.5,306.5 588.5,306.5C 587.632,333.863 586.299,361.196 584.5,388.5C 580.486,388.666 576.486,388.499 572.5,388C 572.885,360.885 574.219,333.718 576.5,306.5 Z"/></g>
<g><path style="opacity:0.919" fill="#000000" d="M 591.5,306.5 C 595.833,306.5 600.167,306.5 604.5,306.5C 603.202,333.835 601.868,361.168 600.5,388.5C 596.167,388.5 591.833,388.5 587.5,388.5C 588.7,361.16 590.034,333.827 591.5,306.5 Z"/></g>
<g><path style="opacity:0.92" fill="#000000" d="M 607.5,306.5 C 611.5,306.5 615.5,306.5 619.5,306.5C 619.046,333.195 617.88,359.862 616,386.5C 612.164,388.389 607.997,389.055 603.5,388.5C 604.303,361.112 605.636,333.779 607.5,306.5 Z"/></g>
<g><path style="opacity:0.808" fill="#000000" d="M 175.5,338.5 C 173.865,351.064 178.532,360.564 189.5,367C 198.547,369.819 206.547,367.986 213.5,361.5C 212.532,367.139 209.198,371.305 203.5,374C 191.532,378.344 181.698,375.511 174,365.5C 170.241,356.145 170.741,347.145 175.5,338.5 Z"/></g>
<g><path style="opacity:0.81" fill="#000000" d="M 846.5,338.5 C 847.458,338.953 848.292,339.619 849,340.5C 854.537,353.143 852.037,363.976 841.5,373C 827.348,379.203 816.348,375.703 808.5,362.5C 808.833,362.167 809.167,361.833 809.5,361.5C 824.759,372.642 836.926,369.976 846,353.5C 846.499,348.511 846.666,343.511 846.5,338.5 Z"/></g>
</svg>
